<svg xmlns="http://www.w3.org/2000/svg" xmlns:xlink="http://www.w3.org/1999/xlink" width="160" height="20" viewBox="0 0 160 20">
    <defs>
        <ellipse id="a" cx="9.696" cy="9.292" rx="9.696" ry="9.292"/>
        <linearGradient id="b" x1="0%" y1="50%" y2="50%">
            <stop offset="0%" stop-color="#FF5F6D"/>
            <stop offset="100%" stop-color="#FFC371"/>
        </linearGradient>
    </defs>
    <g fill="none" fill-rule="evenodd">
        <g transform="translate(80 .8)">
            <mask id="c" fill="#fff">
                <use xlink:href="#a"/>
            </mask>
            <path fill="url(#b)" d="M-7.922 15.796c8.277 0 8.75-5.11 11.942-5.11 3.193 0 3.075 2.671 6.03 2.671 2.957 0 2.839-7.666 7.095-7.666 2.838 0 5.124 2.4 6.859 7.202V24.74c0-.31-10.13-.774-30.39-1.394-6.542-5.033-7.054-7.55-1.536-7.55z" mask="url(#c)" opacity=".295"/>
            <path stroke="#F47D49" stroke-width=".808" d="M-7.922 15.796c8.277 0 8.75-5.11 11.942-5.11 3.193 0 3.075 2.671 6.03 2.671 2.957 0 2.839-7.666 7.095-7.666 2.838 0 5.124 2.4 6.859 7.202V24.74" mask="url(#c)"/>
            <circle cx="3.232" cy="10.504" r="1" fill="#FFF" stroke="#F47D49" stroke-width=".808"/>
            <circle cx="10.504" cy="13.736" r="1" fill="#FFF" stroke="#F47D49" stroke-width=".808"/>
            <circle cx="15.352" cy="6.464" r="1" fill="#FFF" stroke="#F47D49" stroke-width=".808"/>
        </g>
        <path fill="#141F29" d="M15.497 13.938H3.415L.65 19.915H0L9.174.085h.564l9.174 19.83h-.65l-2.765-5.977zm-.254-.539L9.456.85 3.67 13.4h11.573zm26.495-3.2h.537v7.251c-.828.831-1.83 1.464-3.007 1.898-1.176.435-2.441.652-3.796.652-1.938 0-3.684-.434-5.236-1.303a9.537 9.537 0 0 1-3.656-3.584c-.884-1.52-1.326-3.224-1.326-5.113 0-1.889.442-3.593 1.326-5.113a9.537 9.537 0 0 1 3.656-3.584C31.788.434 33.534 0 35.472 0c1.374 0 2.644.212 3.81.637 1.167.425 2.165 1.053 2.993 1.884l-.34.397C40.28 1.33 38.126.538 35.473.538c-1.807 0-3.449.416-4.926 1.247a9.083 9.083 0 0 0-3.472 3.413c-.837 1.445-1.256 3.046-1.256 4.802 0 1.756.419 3.357 1.256 4.802a9.083 9.083 0 0 0 3.472 3.413c1.477.831 3.12 1.247 4.926 1.247 2.616 0 4.704-.746 6.266-2.238v-7.026zM69.42.084v19.83h-.48L54.46 1.133v18.782h-.564V.085h.48l14.48 18.782V.085h.564zM89.677 20c-1.9 0-3.622-.434-5.166-1.303a9.565 9.565 0 0 1-3.64-3.584c-.885-1.52-1.327-3.224-1.327-5.113 0-1.889.442-3.593 1.326-5.113a9.565 9.565 0 0 1 3.641-3.584C86.055.434 87.776 0 89.677 0c1.9 0 3.622.434 5.166 1.303a9.565 9.565 0 0 1 3.64 3.584C99.369 6.407 99.81 8.11 99.81 10c0 1.889-.442 3.593-1.326 5.113a9.565 9.565 0 0 1-3.641 3.584C93.299 19.566 91.578 20 89.677 20zm0-.538c1.788 0 3.41-.411 4.87-1.233a9.036 9.036 0 0 0 3.443-3.399c.837-1.445 1.256-3.055 1.256-4.83s-.419-3.385-1.256-4.83a9.036 9.036 0 0 0-3.444-3.4C93.088.95 91.465.539 89.677.539c-1.788 0-3.41.411-4.87 1.233a9.036 9.036 0 0 0-3.443 3.399c-.837 1.445-1.256 3.055-1.256 4.83s.419 3.385 1.256 4.83a9.036 9.036 0 0 0 3.444 3.4c1.458.821 3.081 1.232 4.869 1.232zm34.286.453l-5.024-6.997c-.659.132-1.43.198-2.315.198H110.5v6.799h-.564V.085h6.69c2.427 0 4.327.571 5.701 1.714 1.374 1.142 2.06 2.743 2.06 4.802 0 1.586-.423 2.913-1.27 3.98-.846 1.067-2.041 1.799-3.584 2.195l5.137 7.139h-.706zm-7.282-7.337c2.296 0 4.06-.52 5.292-1.558 1.233-1.039 1.85-2.512 1.85-4.42 0-1.907-.617-3.38-1.85-4.419-1.232-1.038-2.996-1.558-5.292-1.558h-6.182v11.955h6.182zM134.85.085h.564v19.83h-.564V.085zM152.454 20c-1.43 0-2.776-.26-4.037-.779-1.26-.52-2.23-1.195-2.907-2.026l.395-.368c.64.756 1.553 1.384 2.738 1.884 1.186.5 2.446.75 3.783.75 2.05 0 3.598-.41 4.643-1.232 1.044-.821 1.566-1.883 1.566-3.187 0-1.02-.272-1.831-.818-2.436a5.102 5.102 0 0 0-2.018-1.36c-.8-.302-1.877-.613-3.232-.934-1.45-.36-2.597-.704-3.444-1.034a5.392 5.392 0 0 1-2.16-1.53c-.592-.69-.889-1.61-.889-2.762 0-.907.236-1.738.706-2.493.47-.756 1.204-1.36 2.202-1.813.997-.453 2.23-.68 3.698-.68a9.98 9.98 0 0 1 3.105.496c1.016.33 1.89.77 2.625 1.317l-.31.453a8.61 8.61 0 0 0-2.584-1.289 9.506 9.506 0 0 0-2.808-.439c-1.976 0-3.482.42-4.517 1.26-1.035.841-1.552 1.913-1.552 3.216 0 1.02.273 1.837.819 2.45a5.02 5.02 0 0 0 2.032 1.375c.81.302 1.9.623 3.274.963 1.43.359 2.569.703 3.416 1.034a5.4 5.4 0 0 1 2.145 1.501c.583.67.875 1.572.875 2.705 0 .907-.245 1.738-.734 2.493-.49.756-1.237 1.355-2.244 1.8-1.007.443-2.263.665-3.768.665z"/>
    </g>
</svg>
