<?xml version="1.0" encoding="utf-8"?>
<!-- Generator: Adobe Illustrator 19.0.0, SVG Export Plug-In . SVG Version: 6.00 Build 0)  -->
<svg version="1.1" id="Layer_1" xmlns="http://www.w3.org/2000/svg" xmlns:xlink="http://www.w3.org/1999/xlink" x="0px" y="0px"
	 viewBox="206 -116 1024 1024" style="enable-background:new 206 -116 1024 1024;" xml:space="preserve">
<style type="text/css">
	.st0{fill:#1ABC9C;}
	.st1{clip-path:url(#SVGID_2_);fill:#20668C;}
	.st2{clip-path:url(#SVGID_4_);}
	.st3{clip-path:url(#SVGID_6_);fill:#1F6287;enable-background:new    ;}
	.st4{fill:#B6A280;}
	.st5{fill:#D8BE92;}
	.st6{fill:#D9BF94;}
	.st7{fill:#443C34;}
	.st8{fill:#BD9D69;}
	.st9{fill:#433B33;}
</style>
<circle class="avatar-bg st0" cx="716.5" cy="393.5" r="505.8"/>
<g>
	<defs>
		<circle id="SVGID_1_" cx="716.5" cy="393.5" r="505.8"/>
	</defs>
	<clipPath id="SVGID_2_">
		<use xlink:href="#SVGID_1_"  style="overflow:visible;"/>
	</clipPath>
	<path class="avatar-shirt st1" d="M716.5,599.7c187.3,0,339.1,21.3,339.1,179.3s-151.8,286.2-339.1,286.2c-187.3,0-339.1-128.1-339.1-286.2
		S529.2,599.7,716.5,599.7z"/>
</g>
<g>
	<defs>
		<circle id="SVGID_3_" cx="716.5" cy="393.5" r="505.8"/>
	</defs>
	<clipPath id="SVGID_4_">
		<use xlink:href="#SVGID_3_"  style="overflow:visible;"/>
	</clipPath>
	<g class="st2">
		<defs>
			<path id="SVGID_5_" d="M716.5,599.7c187.3,0,339.1,21.3,339.1,179.3s-151.8,286.2-339.1,286.2c-187.3,0-339.1-128.1-339.1-286.2
				S529.2,599.7,716.5,599.7z"/>
		</defs>
		<clipPath id="SVGID_6_">
			<use xlink:href="#SVGID_5_"  style="overflow:visible;"/>
		</clipPath>
		<path class="avatar-shirt-shadow st3" d="M333.6,841.7c0,0,452.5-19.2,618.5-284.8s78.6-610.2,78.6-610.2l470.5,527.9L1304.3,1003L333.6,841.7z"/>
	</g>
</g>
<g>
	<path class="st4" d="M720.8,529.1c61,0,110.5,35.6,110.5,79.6c0,44-49.5,79.6-110.5,79.6s-110.5-35.6-110.5-79.6
		C610.3,564.8,659.8,529.1,720.8,529.1z"/>
	<path class="st5" d="M719.8,36.5c140.6,0,254.5,134.1,254.5,299.5c0,69.6-37.6,141.9-72.3,184.5s-83.9,94.3-144,108.8
		c-16.9,4.1-21.7,4.5-40.6,4.3c-17.3-0.2-24-0.6-42.1-5.4c-72.1-19-122-67.4-153.4-121.1c-31.3-53.7-56.6-118.9-56.6-171.2
		C465.3,170.5,579.2,36.5,719.8,36.5z"/>
	<path class="st6" d="M967.9,258.2c15.3,0,27.6,24.3,27.6,54.2c0,29.9-12.4,54.2-27.6,54.2c-15.3,0-27.6-24.3-27.6-54.2
		C940.2,282.5,952.6,258.2,967.9,258.2z"/>
	<path class="st6" d="M472.4,258.2c15.3,0,27.6,24.3,27.6,54.2c0,29.9-12.4,54.2-27.6,54.2s-27.6-24.3-27.6-54.2
		C444.8,282.5,457.1,258.2,472.4,258.2z"/>
</g>
<g>
	<path class="st7" d="M969.5,323.7c0.1,24.4,22.8-55.5-29.6-146.8C887.4,85.5,846.1,21.3,714.6,21.3
		c-131.5,0-179.4,92.4-215.2,155.8c-35.9,63.3-44.6,136.5-32.6,145.4c3.8-18.1,10.1-48.9,30.3-80.2c6.4-9.8,23.8-3.6,23.8-3.6
		s30.1-95.8,61.8-100.8c4.4-1,69.2-6.5,139.3-4.3c65.5,2.1,137.8,12.6,134.4,12.9c37.4,4.4,69.1,101.9,69.1,101.9s25,2.2,26.1,5
		C958.6,273.1,964.9,296.3,969.5,323.7z"/>
	<path class="st7" d="M677.8,110.8c-51.8-51.5-151-47.1-151-47.1s89.1-44.9,124.2-27C686.2,54.5,692.2,63.2,677.8,110.8z"/>
	<path class="st7" d="M721.8,107.3c-33.4-66.4-128.7-96.1-128.7-96.1S691.1-0.9,719,28C746.8,56.8,749.9,67.1,721.8,107.3z"/>
	<path class="st7" d="M802.6,129.8C784.2,50.8,684.5-8.7,684.5-8.7S808,15.4,831.2,53.7S846.4,96.5,802.6,129.8z"/>
	<path class="st7" d="M538.1,140c-16.6-16.7-45.7-1.5-45.7-1.5S542.5,21.4,699.3,21.4c156.8,0,192.3,87.5,183.2,111.2
		c-12.9,13.5-47.6,14.6-47.6,14.6S695.1,160.8,538.1,140z"/>
</g>
<g>
	<path d="M697.7,524l-5.4-16c0,0,30.9,5.9,66.7-2.6c36.7-8.7,60.7-30.5,60.7-30.5l3.2,10.5c0,0-22,27.4-58.8,36.1
		C728.4,529.9,697.7,524,697.7,524z"/>
	<path class="st8" d="M721.1,383.6c-7.4-0.4-14.7,15.1-22.7,28.2c-4.5,7.5-11.5,10.2-13.1,18.7c-4.5,23.3,23.3,21.2,35.8,20.5
		C733.6,450.3,732.7,384.3,721.1,383.6z"/>
	<circle cx="638.2" cy="333.2" r="16.6"/>
	<circle cx="794.8" cy="333.2" r="16.6"/>
	<g>
		<path class="st9" d="M600.2,286.8l-2.4-19.7l64.8-7.8L665,279L600.2,286.8z"/>
		<path class="st9" d="M769.5,278.5l2.7-19.6l64.6,8.8l-2.7,19.6L769.5,278.5z"/>
	</g>
</g>
</svg>
